<mxfile host="app.diagrams.net" agent="Mozilla/5.0 (Macintosh; Intel Mac OS X 10_15_7) AppleWebKit/605.1.15 (KHTML, like Gecko) Version/17.5 Safari/605.1.15" version="24.7.7">
  <diagram name="Page-1" id="7yttMXRSF6fugMSMXQC9">
    <mxGraphModel dx="979" dy="652" grid="1" gridSize="10" guides="1" tooltips="1" connect="1" arrows="1" fold="1" page="1" pageScale="1" pageWidth="827" pageHeight="1169" math="0" shadow="0">
      <root>
        <mxCell id="0" />
        <mxCell id="1" parent="0" />
        <mxCell id="4HG7Ck5HDDxE3vP-vEPG-3" value="VPC" style="points=[[0,0],[0.25,0],[0.5,0],[0.75,0],[1,0],[1,0.25],[1,0.5],[1,0.75],[1,1],[0.75,1],[0.5,1],[0.25,1],[0,1],[0,0.75],[0,0.5],[0,0.25]];outlineConnect=0;gradientColor=none;html=1;whiteSpace=wrap;fontSize=12;fontStyle=0;container=1;pointerEvents=0;collapsible=0;recursiveResize=0;shape=mxgraph.aws4.group;grIcon=mxgraph.aws4.group_vpc2;strokeColor=#8C4FFF;fillColor=none;verticalAlign=top;align=left;spacingLeft=30;fontColor=#AAB7B8;dashed=0;" vertex="1" parent="1">
          <mxGeometry x="371" y="230" width="280" height="410" as="geometry" />
        </mxCell>
        <mxCell id="4HG7Ck5HDDxE3vP-vEPG-2" value="Security group" style="fillColor=none;strokeColor=#DD3522;verticalAlign=top;fontStyle=0;fontColor=#DD3522;whiteSpace=wrap;html=1;" vertex="1" parent="4HG7Ck5HDDxE3vP-vEPG-3">
          <mxGeometry x="40" y="40" width="190" height="340" as="geometry" />
        </mxCell>
        <mxCell id="4HG7Ck5HDDxE3vP-vEPG-10" value="Public subnet" style="points=[[0,0],[0.25,0],[0.5,0],[0.75,0],[1,0],[1,0.25],[1,0.5],[1,0.75],[1,1],[0.75,1],[0.5,1],[0.25,1],[0,1],[0,0.75],[0,0.5],[0,0.25]];outlineConnect=0;gradientColor=none;html=1;whiteSpace=wrap;fontSize=12;fontStyle=0;container=1;pointerEvents=0;collapsible=0;recursiveResize=0;shape=mxgraph.aws4.group;grIcon=mxgraph.aws4.group_security_group;grStroke=0;strokeColor=#7AA116;fillColor=#F2F6E8;verticalAlign=top;align=left;spacingLeft=30;fontColor=#248814;dashed=0;" vertex="1" parent="4HG7Ck5HDDxE3vP-vEPG-3">
          <mxGeometry x="80" y="120" width="130" height="220" as="geometry" />
        </mxCell>
        <mxCell id="4HG7Ck5HDDxE3vP-vEPG-12" value="" style="sketch=0;outlineConnect=0;fontColor=#232F3E;gradientColor=none;fillColor=#ED7100;strokeColor=none;dashed=0;verticalLabelPosition=bottom;verticalAlign=top;align=center;html=1;fontSize=12;fontStyle=0;aspect=fixed;pointerEvents=1;shape=mxgraph.aws4.elastic_ip_address;" vertex="1" parent="4HG7Ck5HDDxE3vP-vEPG-3">
          <mxGeometry x="10" y="80" width="48" height="20" as="geometry" />
        </mxCell>
        <mxCell id="4HG7Ck5HDDxE3vP-vEPG-19" value="&lt;font style=&quot;font-size: 10px;&quot;&gt;Ingress rule: port 22, for specified IP address&lt;/font&gt;" style="text;html=1;align=left;verticalAlign=middle;whiteSpace=wrap;rounded=0;" vertex="1" parent="4HG7Ck5HDDxE3vP-vEPG-3">
          <mxGeometry x="63" y="70" width="120" height="30" as="geometry" />
        </mxCell>
        <mxCell id="4HG7Ck5HDDxE3vP-vEPG-13" value="" style="sketch=0;points=[[0,0,0],[0.25,0,0],[0.5,0,0],[0.75,0,0],[1,0,0],[0,1,0],[0.25,1,0],[0.5,1,0],[0.75,1,0],[1,1,0],[0,0.25,0],[0,0.5,0],[0,0.75,0],[1,0.25,0],[1,0.5,0],[1,0.75,0]];outlineConnect=0;fontColor=#232F3E;fillColor=#ED7100;strokeColor=#ffffff;dashed=0;verticalLabelPosition=bottom;verticalAlign=top;align=center;html=1;fontSize=12;fontStyle=0;aspect=fixed;shape=mxgraph.aws4.resourceIcon;resIcon=mxgraph.aws4.ec2;" vertex="1" parent="4HG7Ck5HDDxE3vP-vEPG-3">
          <mxGeometry x="106" y="200" width="78" height="78" as="geometry" />
        </mxCell>
        <mxCell id="4HG7Ck5HDDxE3vP-vEPG-8" value="Parameter&#xa;Store" style="sketch=0;outlineConnect=0;fontColor=#232F3E;gradientColor=none;strokeColor=#232F3E;fillColor=#ffffff;dashed=0;verticalLabelPosition=bottom;verticalAlign=top;align=center;html=1;fontSize=12;fontStyle=0;aspect=fixed;shape=mxgraph.aws4.resourceIcon;resIcon=mxgraph.aws4.parameter_store;" vertex="1" parent="1">
          <mxGeometry x="280" y="311" width="60" height="60" as="geometry" />
        </mxCell>
        <mxCell id="4HG7Ck5HDDxE3vP-vEPG-14" value="RSA Key Pair" style="points=[[0,0.5,0],[0.24,0,0],[0.5,0.28,0],[0.995,0.475,0],[0.5,0.72,0],[0.24,1,0]];verticalLabelPosition=bottom;sketch=0;html=1;verticalAlign=top;aspect=fixed;align=center;pointerEvents=1;shape=mxgraph.cisco19.key;fillColor=#005073;strokeColor=none;" vertex="1" parent="1">
          <mxGeometry x="285" y="270" width="50" height="22.5" as="geometry" />
        </mxCell>
        <mxCell id="4HG7Ck5HDDxE3vP-vEPG-11" value="" style="sketch=0;outlineConnect=0;fontColor=#232F3E;gradientColor=none;fillColor=#DD344C;strokeColor=none;dashed=0;verticalLabelPosition=bottom;verticalAlign=top;align=center;html=1;fontSize=12;fontStyle=0;aspect=fixed;pointerEvents=1;shape=mxgraph.aws4.role;" vertex="1" parent="1">
          <mxGeometry x="681" y="447" width="78" height="44" as="geometry" />
        </mxCell>
        <mxCell id="4HG7Ck5HDDxE3vP-vEPG-18" style="edgeStyle=orthogonalEdgeStyle;rounded=0;orthogonalLoop=1;jettySize=auto;html=1;exitX=1;exitY=0.5;exitDx=0;exitDy=0;exitPerimeter=0;endArrow=none;endFill=0;" edge="1" parent="1" source="4HG7Ck5HDDxE3vP-vEPG-13" target="4HG7Ck5HDDxE3vP-vEPG-11">
          <mxGeometry relative="1" as="geometry" />
        </mxCell>
        <mxCell id="4HG7Ck5HDDxE3vP-vEPG-23" style="edgeStyle=orthogonalEdgeStyle;rounded=0;orthogonalLoop=1;jettySize=auto;html=1;endArrow=none;endFill=0;" edge="1" parent="1" target="4HG7Ck5HDDxE3vP-vEPG-8">
          <mxGeometry relative="1" as="geometry">
            <mxPoint x="150" y="420" as="sourcePoint" />
            <Array as="points">
              <mxPoint x="150" y="341" />
            </Array>
          </mxGeometry>
        </mxCell>
        <mxCell id="4HG7Ck5HDDxE3vP-vEPG-24" style="edgeStyle=orthogonalEdgeStyle;rounded=0;orthogonalLoop=1;jettySize=auto;html=1;endArrow=none;endFill=0;" edge="1" parent="1" source="4HG7Ck5HDDxE3vP-vEPG-21" target="4HG7Ck5HDDxE3vP-vEPG-13">
          <mxGeometry relative="1" as="geometry" />
        </mxCell>
        <mxCell id="4HG7Ck5HDDxE3vP-vEPG-21" value="" style="verticalLabelPosition=bottom;sketch=0;aspect=fixed;html=1;verticalAlign=top;strokeColor=none;align=center;outlineConnect=0;shape=mxgraph.citrix.laptop_2;" vertex="1" parent="1">
          <mxGeometry x="90" y="425.75" width="116" height="86.5" as="geometry" />
        </mxCell>
        <mxCell id="4HG7Ck5HDDxE3vP-vEPG-25" value="&lt;font style=&quot;font-size: 10px;&quot;&gt;SSH&lt;/font&gt;" style="text;html=1;align=center;verticalAlign=middle;whiteSpace=wrap;rounded=0;" vertex="1" parent="1">
          <mxGeometry x="245" y="445" width="60" height="30" as="geometry" />
        </mxCell>
        <mxCell id="4HG7Ck5HDDxE3vP-vEPG-27" value="AWS Cloud" style="points=[[0,0],[0.25,0],[0.5,0],[0.75,0],[1,0],[1,0.25],[1,0.5],[1,0.75],[1,1],[0.75,1],[0.5,1],[0.25,1],[0,1],[0,0.75],[0,0.5],[0,0.25]];outlineConnect=0;gradientColor=none;html=1;whiteSpace=wrap;fontSize=12;fontStyle=0;container=1;pointerEvents=0;collapsible=0;recursiveResize=0;shape=mxgraph.aws4.group;grIcon=mxgraph.aws4.group_aws_cloud_alt;strokeColor=#232F3E;fillColor=none;verticalAlign=top;align=left;spacingLeft=30;fontColor=#232F3E;dashed=0;" vertex="1" parent="1">
          <mxGeometry x="260" y="200" width="510" height="460" as="geometry" />
        </mxCell>
        <mxCell id="4HG7Ck5HDDxE3vP-vEPG-29" style="edgeStyle=orthogonalEdgeStyle;rounded=0;orthogonalLoop=1;jettySize=auto;html=1;exitX=0;exitY=0.25;exitDx=0;exitDy=0;exitPerimeter=0;endArrow=none;endFill=0;" edge="1" parent="1" source="4HG7Ck5HDDxE3vP-vEPG-13" target="4HG7Ck5HDDxE3vP-vEPG-8">
          <mxGeometry relative="1" as="geometry">
            <Array as="points">
              <mxPoint x="390" y="450" />
              <mxPoint x="390" y="341" />
            </Array>
          </mxGeometry>
        </mxCell>
      </root>
    </mxGraphModel>
  </diagram>
</mxfile>
